<?xml version="1.0" encoding="UTF-8" standalone="no"?>
<!-- Generator: Adobe Illustrator 19.0.0, SVG Export Plug-In . SVG Version: 6.00 Build 0)  -->

<svg
   version="1.1"
   id="Layer_1"
   x="0px"
   y="0px"
   viewBox="0 0 512 512"
   style="enable-background:new 0 0 512 512;"
   xml:space="preserve"
   sodipodi:docname="videocam.svg"
   inkscape:version="1.2.2 (732a01da63, 2022-12-09)"
   xmlns:inkscape="http://www.inkscape.org/namespaces/inkscape"
   xmlns:sodipodi="http://sodipodi.sourceforge.net/DTD/sodipodi-0.dtd"
   xmlns="http://www.w3.org/2000/svg"
   xmlns:svg="http://www.w3.org/2000/svg"><defs
   id="defs154" /><sodipodi:namedview
   id="namedview152"
   pagecolor="#ffffff"
   bordercolor="#000000"
   borderopacity="0.25"
   inkscape:showpageshadow="2"
   inkscape:pageopacity="0.0"
   inkscape:pagecheckerboard="0"
   inkscape:deskcolor="#d1d1d1"
   showgrid="false"
   inkscape:zoom="1.3037281"
   inkscape:cx="286.86963"
   inkscape:cy="297.22455"
   inkscape:window-width="1920"
   inkscape:window-height="1121"
   inkscape:window-x="-9"
   inkscape:window-y="1346"
   inkscape:window-maximized="1"
   inkscape:current-layer="Layer_1" />
<path
   style="fill:#ac9d93"
   d="M512,224.229V372.26c0,14.211-7.084,27.355-18.965,35.171c-6.99,4.598-15.026,6.949-23.124,6.949  c-5.642,0-11.316-1.149-16.677-3.459l-113.758-49.027v-127.31l113.758-49.027c13.051-5.622,27.93-4.315,39.8,3.49  C504.916,196.865,512,210.008,512,224.229z"
   id="path79" />
<path
   style="fill:#6c5d53"
   d="M512,294.896v77.364c0,14.211-7.084,27.355-18.965,35.171c-6.99,4.598-15.026,6.949-23.124,6.949  c-5.642,0-11.316-1.149-16.677-3.459l-113.758-49.027v-66.999H512z"
   id="path81" />
<path
   style="fill:#ac9d93"
   d="M224.016,123.731c0,17.93-5.611,34.576-15.172,48.274c-15.287,21.922-40.688,36.289-69.381,36.289  c-46.623,0-84.564-37.94-84.564-84.564s37.94-84.553,84.564-84.553c28.693,0,54.094,14.367,69.381,36.289  C218.405,89.155,224.016,105.801,224.016,123.731z"
   id="path83" />
<circle
   style="fill:#e3dedb"
   cx="139.463"
   cy="123.727"
   r="12.089"
   id="circle85" />
<path
   style="fill:#ac9d93"
   d="M322.978,143.135c0,35.934-29.226,65.16-65.149,65.16c-35.934,0-65.16-29.226-65.16-65.16  c0-35.924,29.226-65.149,65.16-65.149C293.752,77.986,322.978,107.211,322.978,143.135z"
   id="path87" />
<path
   style="fill:#FFFFFF;"
   d="M269.908,143.145c0,6.666-5.413,12.079-12.079,12.079c-6.677,0-12.089-5.413-12.089-12.079  c0-6.677,5.413-12.089,12.089-12.089C264.495,131.057,269.908,136.468,269.908,143.145z"
   id="path89" />
<path
   style="fill:#6c5d53"
   d="M224.016,123.731c0,17.93-5.611,34.576-15.172,48.274c-15.287,21.922-40.688,36.289-69.381,36.289  V39.178c28.693,0,54.094,14.367,69.381,36.289C218.405,89.155,224.016,105.801,224.016,123.731z"
   id="path91" />
<path
   style="fill:#c8beb7"
   d="M151.552,123.731c0,6.677-5.413,12.089-12.089,12.089v-24.179  C146.139,111.642,151.552,117.054,151.552,123.731z"
   id="path93" />
<path
   style="fill:#6c5d53"
   d="M322.978,143.135c0,35.934-29.226,65.16-65.149,65.16V77.986  C293.752,77.986,322.978,107.211,322.978,143.135z"
   id="path95" />
<path
   style="fill:#c8beb7"
   d="M269.908,143.145c0,6.666-5.413,12.079-12.079,12.079v-24.168  C264.495,131.057,269.908,136.468,269.908,143.145z"
   id="path97" />
<g
   id="g103"
   style="fill:#cccccc">
	<rect
   y="211.864"
   style="fill:#cccccc"
   width="78.213"
   height="118.178"
   id="rect99" />
	<rect
   x="123.789"
   y="388.191"
   style="fill:#cccccc"
   width="134.531"
   height="84.632"
   id="rect101" />
</g>
<rect
   x="208.844"
   y="388.191"
   style="fill:#999999"
   width="49.465"
   height="84.632"
   id="rect105" />
<rect
   x="46.864"
   y="176.944"
   style="fill:#00aa44"
   width="323.96"
   height="242.594"
   id="rect107" />
<rect
   x="208.844"
   y="176.944"
   style="fill:#005522"
   width="161.98"
   height="242.594"
   id="rect109" />
<rect
   x="115.2"
   y="242.96"
   style="fill:#e3dedb"
   width="127.436"
   height="31.347"
   id="rect111" />
<g
   id="g119"
   style="fill:#c8beb7">
	<rect
   x="208.802"
   y="242.96"
   style="fill:#c8beb7"
   width="33.834"
   height="31.347"
   id="rect113" />
	<rect
   x="274.118"
   y="241.414"
   style="fill:#c8beb7"
   width="34.156"
   height="34.156"
   id="rect115" />
	<rect
   x="274.118"
   y="306.709"
   style="fill:#c8beb7"
   width="34.156"
   height="34.156"
   id="rect117" />
</g>
<g
   id="g121">
</g>
<g
   id="g123">
</g>
<g
   id="g125">
</g>
<g
   id="g127">
</g>
<g
   id="g129">
</g>
<g
   id="g131">
</g>
<g
   id="g133">
</g>
<g
   id="g135">
</g>
<g
   id="g137">
</g>
<g
   id="g139">
</g>
<g
   id="g141">
</g>
<g
   id="g143">
</g>
<g
   id="g145">
</g>
<g
   id="g147">
</g>
<g
   id="g149">
</g>
</svg>
